# xmcd CD database file
#
# Track frame offsets:
#	150
#	13826
#	40783
#	55967
#	72874
#	91621
#	123117
#	142367
#	163130
#	186681
#	201968
#	221393
#	238681
#	249284
#	264446
#	287091
#	301813
#	320231
#
# Disc length: 4456 seconds
#
# Revision: 0
# Processed by: cddbd v1.5.2PL0 Copyright (c) Steve Scherf et al.
# Submitted via: CDex 1.70beta1
#
DISCID=0f116612
DTITLE=Wally Fawkes  - The Wally Fawkes Collection CD 2
DYEAR=1900
DGENRE=Jazz
TTITLE0=Weary Blues
TTITLE1=Blues for Tommy Ladnier
TTITLE2=Isle of Capri 
TTITLE3=Down Home Rag
TTITLE4=Trog's Blues 
TTITLE5=Mobile Blues
TTITLE6=Come Back Sweet Papa
TTITLE7=Rent Party Blues
TTITLE8=Autumn in Tuffnell Park
TTITLE9=Breeze
TTITLE10=Dr. Jazz
TTITLE11=That's the Blues, Old Man
TTITLE12=Big Lip Blues
TTITLE13=Viper Mad
TTITLE14=I Thought I Heard Jimmy Yancey Say
TTITLE15=East Coast Trot
TTITLE16=Saratoga Swing
TTITLE17=South
EXTD=
EXTT0=
EXTT1=
EXTT2=
EXTT3=
EXTT4=
EXTT5=
EXTT6=
EXTT7=
EXTT8=
EXTT9=
EXTT10=
EXTT11=
EXTT12=
EXTT13=
EXTT14=
EXTT15=
EXTT16=
EXTT17=
PLAYORDER=
